<?xml version="1.0" encoding="UTF-8" standalone="no"?>
<!-- Created with Inkscape (http://www.inkscape.org/) -->

<svg
   xmlns:dc="http://purl.org/dc/elements/1.1/"
   xmlns:cc="http://creativecommons.org/ns#"
   xmlns:rdf="http://www.w3.org/1999/02/22-rdf-syntax-ns#"
   xmlns:svg="http://www.w3.org/2000/svg"
   xmlns="http://www.w3.org/2000/svg"
   xmlns:sodipodi="http://sodipodi.sourceforge.net/DTD/sodipodi-0.dtd"
   xmlns:inkscape="http://www.inkscape.org/namespaces/inkscape"
   width="230.47079"
   height="71.489258"
   id="svg2"
   version="1.1"
   inkscape:version="0.48.4 r9939"
   sodipodi:docname="werchanBanner.svg"
   inkscape:export-filename="/home/kuko/werchanFavicon/16x16.png"
   inkscape:export-xdpi="18.947369"
   inkscape:export-ydpi="18.947369">
  <defs
     id="defs4" />
  <sodipodi:namedview
     id="base"
     pagecolor="#ffffff"
     bordercolor="#666666"
     borderopacity="1.0"
     inkscape:pageopacity="0.0"
     inkscape:pageshadow="2"
     inkscape:zoom="2"
     inkscape:cx="118.34622"
     inkscape:cy="52.799295"
     inkscape:document-units="px"
     inkscape:current-layer="layer1"
     showgrid="false"
     fit-margin-top="0"
     fit-margin-left="0"
     fit-margin-right="0"
     fit-margin-bottom="0"
     inkscape:window-width="672"
     inkscape:window-height="817"
     inkscape:window-x="2422"
     inkscape:window-y="195"
     inkscape:window-maximized="0" />
  <metadata
     id="metadata7">
    <rdf:RDF>
      <cc:Work
         rdf:about="">
        <dc:format>image/svg+xml</dc:format>
        <dc:type
           rdf:resource="http://purl.org/dc/dcmitype/StillImage" />
        <dc:title />
      </cc:Work>
    </rdf:RDF>
  </metadata>
  <g
     inkscape:label="Layer 1"
     inkscape:groupmode="layer"
     id="layer1"
     transform="translate(-385.90625,-458.78563)">
    <g
       id="g3053"
       transform="translate(2,-2.3706234)">
      <path
         sodipodi:nodetypes="ccccccccccccccc"
         inkscape:connector-curvature="0"
         id="path2996"
         d="m 395.60461,461.6584 -10.89286,40.53572 17.85714,-10.17857 -4.10714,23.57142 -4.46429,-5.53571 4.10715,17.32143 19.28571,-25 12.67857,-27.32143 -11.25,0 -9.77678,38.21428 -5.75893,3.21429 8.57143,-34.46428 -17.67857,10.35714 13.03571,-30.53572 z"
         style="fill:#000000;fill-opacity:1;stroke:#000000;stroke-width:1px;stroke-linecap:butt;stroke-linejoin:miter;stroke-opacity:1" />
      <path
         inkscape:transform-center-y="8.75"
         inkscape:transform-center-x="10.387811"
         sodipodi:nodetypes="sssssssssssssssssssssscccs"
         inkscape:connector-curvature="0"
         id="path3801"
         d="m 394.90986,532.63736 c -0.5361,-0.0543 -0.87347,-0.23593 -1.25832,-0.67751 -0.71603,-0.82159 -1.65443,-2.8908 -2.35482,-5.19255 -0.50092,-1.64622 -0.84766,-3.34836 -1.08347,-5.31882 -0.0724,-0.60498 -0.17104,-2.17809 -0.17558,-2.79999 -0.0178,-2.43607 0.2416,-4.20267 0.9271,-6.31363 0.64941,-1.99988 1.31168,-3.28123 2.17095,-4.20024 0.46739,-0.49995 0.91542,-0.80014 1.52692,-1.02311 0.17724,-0.0646 0.24137,-0.0755 0.61929,-0.10454 0.39923,-0.0306 0.43473,-0.0296 0.66921,0.0151 1.37193,0.26334 2.54231,1.14612 4.03559,3.04404 0.69135,0.87865 1.64997,2.3167 2.27779,3.41687 0.0707,0.12393 0.13326,0.22502 0.139,0.2247 0.006,-3.2e-4 0.14833,-0.21956 0.31684,-0.48727 0.49622,-0.78833 0.73276,-1.10173 1.06487,-1.41092 0.80625,-0.75058 1.81235,-1.04767 2.96064,-0.87414 1.76126,0.26615 3.2429,1.81905 3.80143,3.98427 0.16476,0.63873 0.1902,0.81772 0.23664,1.66487 0.0445,0.81369 0.0401,1.02466 -0.0361,1.67861 -0.19879,1.70652 -0.8724,3.43482 -2.15153,5.52038 -0.74686,1.21771 -1.44251,2.15464 -2.35847,3.17653 -0.88754,0.99019 -1.61694,1.66457 -2.56838,2.37464 -1.95188,1.45679 -3.98323,2.4293 -6.19982,2.96816 -0.42347,0.10296 -1.06715,0.23189 -1.40705,0.28189 -0.32849,0.0484 -0.926,0.0756 -1.1527,0.0524 z"
         style="fill:#000000" />
    </g>
    <g
       transform="translate(383.16892,468.824)"
       style="font-size:40px;font-style:normal;font-weight:normal;text-align:start;line-height:125%;letter-spacing:0px;word-spacing:0px;text-anchor:start;fill:#000000;fill-opacity:1;stroke:none;font-family:Sans"
       id="flowRoot2993">
      <path
         d="m 71.14,40.227328 3.2,0 4.72,-14.52 4.76,14.52 3.16,0 8.48,-21.88 -2.88,0 -7.12,18.32 -5.16,-15.64 -2.44,0 -5.16,15.64 -6.96,-18.32 -2.96,0 8.36,21.88"
         style="font-variant:normal;font-stretch:normal;font-family:URW Gothic L;-inkscape-font-specification:URW Gothic L Semi-Bold"
         id="path2998" />
      <path
         d="m 120.14312,30.267328 c 0,-2.999997 -0.4,-4.840001 -1.47999,-6.76 -1.96,-3.479996 -5.76001,-5.68 -9.92,-5.68 -6.36,0 -11.360005,5.000007 -11.360005,11.36 0,6.479994 5.080005,11.56 11.559995,11.56 2.8,0 5.44001,-1.040001 7.44001,-2.92 1.55999,-1.479998 2.6,-3.000001 3.19999,-4.8 l -3.08,0 c -1.23999,2.999997 -4.32,5 -7.64,5 -4.47999,0 -8.28,-3.440004 -8.51999,-7.76 l 19.79999,0 m -19.71999,-2.68 c 0.79999,-4.199995 4.12,-7.04 8.28,-7.04 4.23999,0 7.48,2.680005 8.48,7.04 l -16.76,0"
         style="font-variant:normal;font-stretch:normal;font-family:URW Gothic L;-inkscape-font-specification:URW Gothic L Semi-Bold"
         id="path3000" />
      <path
         d="m 124.23875,40.227328 2.96,0 0,-12.76 c 0,-4.079995 2.08,-6.32 6.2,-6.72 l 0,-2.92 c -3.16,0.16 -5.04,1.240003 -6.2,3.64 l 0,-3.12 -2.96,0 0,21.88"
         style="font-variant:normal;font-stretch:normal;font-family:URW Gothic L;-inkscape-font-specification:URW Gothic L Semi-Bold"
         id="path3002" />
      <path
         d="m 154.71,33.787328 c -2.28,3.039997 -4.4,4.24 -7.48,4.24 -4.92,0 -8.8,-3.880004 -8.8,-8.72 0,-4.919995 3.8,-8.76 8.68,-8.76 3.24,0 5.92,1.560003 7.6,4.44 l 3.32,0 c -1.76,-4.399995 -5.96,-7.16 -10.88,-7.16 -6.55999,0 -11.72,5.040007 -11.72,11.4 0,6.519994 5.20001,11.52 11.92,11.52 2.72,0 5.24,-0.880001 7.28,-2.48 1.4,-1.119998 2.24,-2.200002 3.44,-4.48 l -3.36,0"
         style="font-variant:normal;font-stretch:normal;font-family:URW Gothic L;-inkscape-font-specification:URW Gothic L Semi-Bold"
         id="path3004" />
      <path
         d="m 162.12937,40.227328 2.96,0 0,-12 c 0,-2.359997 0.32001,-3.760001 1.2,-4.96 1.2,-1.719998 3.24001,-2.72 5.48,-2.72 2.12,0 4.12001,0.920002 5.28,2.4 1.04,1.279999 1.48001,2.960003 1.48001,5.52 l 0,11.76 2.95999,0 0,-11.76 c 0,-3.279996 -0.6,-5.520001 -1.88,-7.24 -1.63999,-2.159997 -4.4,-3.4 -7.56,-3.4 -2.99999,0 -5.48,1.200003 -6.96,3.36 l 0,-10.52 -2.96,0 0,29.56"
         style="font-variant:normal;font-stretch:normal;font-family:URW Gothic L;-inkscape-font-specification:URW Gothic L Semi-Bold"
         id="path3006" />
      <path
         d="m 208.78437,18.347328 -2.96,0 0,3.88 c -2.15999,-3.039997 -4.84,-4.4 -8.64,-4.4 -6.55999,0 -11.52,4.960007 -11.52,11.52 0,6.519994 5.00001,11.4 11.72,11.4 3.72,0 6.12001,-1.240003 8.44,-4.36 l 0,3.84 2.96,0 0,-21.88 m -11.52,2.2 c 4.8,0 8.56,3.760005 8.56,8.64 0,4.959995 -3.68,8.84 -8.4,8.84 -4.95999,0 -8.76,-3.880005 -8.76,-8.88 0,-4.759995 3.84001,-8.6 8.6,-8.6"
         style="font-variant:normal;font-stretch:normal;font-family:URW Gothic L;-inkscape-font-specification:URW Gothic L Semi-Bold"
         id="path3008" />
      <path
         d="m 213.84812,40.227328 2.96,0 0,-12.04 c 0,-2.439997 0.32001,-3.720001 1.16,-4.96 1.16,-1.679998 3.20001,-2.68 5.52,-2.68 2.16,0 4.12001,0.880002 5.32,2.36 1.04,1.359999 1.44001,2.960003 1.44001,5.84 l 0,11.48 2.95999,0 0,-11.48 c 0,-3.679996 -0.52,-5.640001 -1.92,-7.52 -1.71999,-2.159997 -4.36,-3.4 -7.44,-3.4 -2.87999,0 -5.2,1.120003 -7.04,3.36 l 0,-2.84 -2.96,0 0,21.88"
         style="font-variant:normal;font-stretch:normal;font-family:URW Gothic L;-inkscape-font-specification:URW Gothic L Semi-Bold"
         id="path3010" />
    </g>
  </g>
</svg>
